<svg xmlns="http://www.w3.org/2000/svg" viewBox="0 0 448 512"><path fill="white" d="M380.9 97.1C339-7.8 219.6-36.3 124.7 5.6S-36.3 228.4 5.6 323.3c41.9 94.9 161.3 123.4 256.2 81.5 34.9-15.4 63.4-40.3 83.8-71 5.7-8.5 4.9-19.8-2-27.6l-42.4-48.2c-7.8-8.9-20.8-10.8-30.7-4.3-6.9 4.5-14.2 8.3-21.8 11.2-41.9 16.4-89.5-1.9-110.8-42.8-3.7-7.1-6.6-14.7-8.7-22.5-3-10.9 3.1-22.2 13.7-25.7l57.3-19c10.1-3.4 16.3-13.9 14.8-24.4l-7.8-54.4c-1.5-10.5-10.7-18.3-21.3-18.1-43.9 1-86.3 20.3-115.7 54.5C86.4 127 76 164.9 81.2 201.4 93 282.7 167 341.1 248.6 334.8c16.8-1.3 33.2-5.9 48.1-13z"/></svg>